<?xml version="1.0" encoding="UTF-8" standalone="no"?>
<svg
   id="Layer_1"
   viewBox="0 0 1024 1024"
   version="1.1"
   sodipodi:docname="Gears-democracy.svg"
   xml:space="preserve"
   inkscape:version="1.3.2 (091e20ef0f, 2023-11-25, custom)"
   width="1023.9999"
   height="1024"
   xmlns:inkscape="http://www.inkscape.org/namespaces/inkscape"
   xmlns:sodipodi="http://sodipodi.sourceforge.net/DTD/sodipodi-0.dtd"
   xmlns:xlink="http://www.w3.org/1999/xlink"
   xmlns="http://www.w3.org/2000/svg"
   xmlns:svg="http://www.w3.org/2000/svg"><sodipodi:namedview
     id="namedview2"
     pagecolor="#ffffff"
     bordercolor="#666666"
     borderopacity="1.0"
     inkscape:showpageshadow="2"
     inkscape:pageopacity="0.0"
     inkscape:pagecheckerboard="0"
     inkscape:deskcolor="#d1d1d1"
     inkscape:zoom="0.38303651"
     inkscape:cx="1187.8763"
     inkscape:cy="163.16982"
     inkscape:window-width="1920"
     inkscape:window-height="1080"
     inkscape:window-x="0"
     inkscape:window-y="1080"
     inkscape:window-maximized="1"
     inkscape:current-layer="g13" /><defs
     id="defs1"><inkscape:path-effect
       effect="perspective-envelope"
       up_left_point="704.40557,80.97892"
       up_right_point="731.48094,81.73946"
       down_left_point="704.40557,114.99967"
       down_right_point="731.48094,114.23913"
       id="path-effect59"
       is_visible="true"
       lpeversion="1"
       deform_type="perspective"
       horizontal_mirror="true"
       vertical_mirror="false"
       overflow_perspective="false" /><linearGradient
       id="linearGradient50"
       inkscape:collect="always"><stop
         style="stop-color:#edf1f8;stop-opacity:1;"
         offset="0"
         id="stop51" /><stop
         style="stop-color:#b6c7e2;stop-opacity:1;"
         offset="1"
         id="stop50" /></linearGradient><linearGradient
       id="linearGradient41"
       inkscape:collect="always"><stop
         style="stop-color:#bfbfbf;stop-opacity:1;"
         offset="0"
         id="stop41" /><stop
         style="stop-color:#ffffff;stop-opacity:1;"
         offset="0.45514476"
         id="stop43" /><stop
         style="stop-color:#c0c0c0;stop-opacity:1;"
         offset="1"
         id="stop42" /></linearGradient><linearGradient
       id="linearGradient33"
       inkscape:collect="always"><stop
         style="stop-color:#ffffff;stop-opacity:1;"
         offset="0.73314798"
         id="stop37" /><stop
         style="stop-color:#b7b7b7;stop-opacity:1;"
         offset="1"
         id="stop34" /></linearGradient><linearGradient
       id="linearGradient7"
       inkscape:collect="always"><stop
         style="stop-color:#eacdb0;stop-opacity:1;"
         offset="0"
         id="stop9" /><stop
         style="stop-color:#a05a2c;stop-opacity:1;"
         offset="1"
         id="stop8" /></linearGradient><style
       id="style1">.cls-1{fill:#fff;}</style><style
       id="style1-0">.cls-1{fill:#fff;}</style><linearGradient
       inkscape:collect="always"
       xlink:href="#linearGradient7"
       id="linearGradient9"
       x1="39.710018"
       y1="428.26001"
       x2="391.19998"
       y2="428.26001"
       gradientUnits="userSpaceOnUse"
       gradientTransform="matrix(1.0354212,0,0,1.0735635,0.44635612,17.091694)" /><linearGradient
       id="linearGradient5626"><stop
         style="stop-color:#838383;stop-opacity:1;"
         offset="0"
         id="stop5628" /><stop
         style="stop-color:#fafafa;stop-opacity:1;"
         offset="1"
         id="stop5630" /></linearGradient><linearGradient
       id="linearGradient4723"><stop
         id="stop4735"
         offset="0"
         style="stop-color:#c1c1c1;stop-opacity:1;" /><stop
         style="stop-color:white;stop-opacity:1;"
         offset="0.56631035"
         id="stop4737" /><stop
         style="stop-color:#ececec;stop-opacity:1;"
         offset="1"
         id="stop4727" /></linearGradient><linearGradient
       id="linearGradient4701"><stop
         style="stop-color:#626262;stop-opacity:1;"
         offset="0"
         id="stop4703" /><stop
         style="stop-color:black;stop-opacity:1;"
         offset="1"
         id="stop4705" /></linearGradient><linearGradient
       id="linearGradient3794"><stop
         style="stop-color:#2f2f2f;stop-opacity:1;"
         offset="0"
         id="stop3796" /><stop
         style="stop-color:#1d1d1d;stop-opacity:1;"
         offset="1"
         id="stop3798" /></linearGradient><linearGradient
       id="linearGradient2892"><stop
         id="stop2894"
         offset="0"
         style="stop-color:#000000;stop-opacity:1;" /><stop
         id="stop2896"
         offset="1"
         style="stop-color:#9da600;stop-opacity:0.37717122;" /></linearGradient><linearGradient
       id="linearGradient2882"><stop
         style="stop-color:#f4ffad;stop-opacity:1;"
         offset="0"
         id="stop2884" /><stop
         style="stop-color:#f2ff01;stop-opacity:1;"
         offset="1"
         id="stop2886" /></linearGradient><linearGradient
       id="linearGradient2866"><stop
         style="stop-color:#ff6401;stop-opacity:1;"
         offset="0"
         id="stop2868" /><stop
         style="stop-color:#ffea5b;stop-opacity:1;"
         offset="1"
         id="stop2870" /></linearGradient><linearGradient
       inkscape:collect="always"
       xlink:href="#linearGradient33"
       id="linearGradient35"
       x1="383.30743"
       y1="-147.69347"
       x2="896.02814"
       y2="416.66812"
       gradientUnits="userSpaceOnUse"
       spreadMethod="reflect"
       gradientTransform="matrix(1.0354212,0,0,1.0735635,62.418904,287.05317)" /><linearGradient
       inkscape:collect="always"
       xlink:href="#linearGradient41"
       id="linearGradient42"
       x1="-59.862507"
       y1="106.28352"
       x2="913.82751"
       y2="106.28352"
       gradientUnits="userSpaceOnUse"
       gradientTransform="matrix(1.0354212,0,0,1.0735635,62.418904,287.05317)" /><linearGradient
       inkscape:collect="always"
       xlink:href="#linearGradient50"
       id="linearGradient51"
       x1="584.7962"
       y1="-103.99567"
       x2="351.29819"
       y2="150.24275"
       gradientUnits="userSpaceOnUse" /></defs><g
     id="g13"
     transform="translate(9.1727018,232.33967)"
     inkscape:label="Structure"><path
       d="M 972.58252,702.03587 V 280.52267 L 970.667,270.0769 c 23.88716,4.44456 42.8871,-13.84896 30.0894,-37.32779 C 982.67788,216.98919 964.22668,201.68017 946.25178,185.79143 892.01641,137.8461 837.93637,89.718258 783.81489,41.633352 774.59964,33.442063 765.45688,25.16489 756.45906,17.091694 L 283.14738,99.884903 176.07469,138.33755 3.2523473,200.40263 c 0,222.3957 -0.018327,259.3759 -0.093188,316.89446 -0.093189,68.89056 -0.4452311,137.78112 -0.78692,206.67169 -0.010353,2.21153 -1.1286091,4.42307 -1.93623751,7.37538 10.05393921,1.21312 20.76019321,2.54434 31.47680221,3.80041 31.953094,3.72527 63.916543,7.40759 95.879986,11.13286 17.13623,1.99683 34.2828,4.00438 51.41902,6.0871 31.82885,3.87556 63.65769,7.78334 95.47617,11.71257 23.46265,2.89861 46.91493,5.86165 70.36722,8.78175 21.03975,2.6195 42.07952,5.27121 63.13997,7.8048 14.30953,1.71771 28.68118,4.92765 42.94929,4.51972 25.03648,-0.71931 50.01083,-3.6716 74.99555,-5.74357 16.87736,-1.40636 33.74436,-3.08113 50.63208,-4.3372 29.58199,-2.20081 59.18467,-4.02587 88.76666,-6.28036 38.57979,-2.94155 77.13888,-6.24812 115.71866,-9.23263 44.25017,-3.41999 -57.45863,4.547 185.05046,-13.62352 14.0196,-1.0521 28.03919,-2.08272 42.30733,-3.14554 v -40.76322 h -36.02232 z m 16.49427,9.80165 c 2.08119,-0.0967 4.18309,-0.0107 6.58528,-0.0107 z"
       id="path1"
       style="fill:url(#linearGradient42);stroke-width:1.05432"
       sodipodi:nodetypes="cccccccccccccccccscccccccccccccc"
       inkscape:label="Background" /><g
       id="g30"
       inkscape:label="Building"
       style="fill:none"
       transform="matrix(1.0354211,0,0,1.0735634,0.44635611,17.091694)"><path
         id="path26"
         style="font-variation-settings:normal;opacity:1;vector-effect:none;fill:none;fill-opacity:1;stroke:#000000;stroke-width:12;stroke-linecap:round;stroke-linejoin:round;stroke-miterlimit:4;stroke-dasharray:none;stroke-dashoffset:0;stroke-opacity:1;-inkscape-stroke:none;stop-color:#000000;stop-opacity:1"
         inkscape:label="right wall"
         d="m 730.15025,0 -13.1817,2.22461 c -3.0724,0.96013 -5.87661,1.85268 -9.6172,2.97656 l 3.0879,-0.77148 c -1.615,2.30749 -3.30281,4.42026 -5.0957,6.35156 -1.7932,1.93155 -3.6908,3.68075 -5.7304,5.25586 -2.0394,1.57507 -4.21811,2.97605 -6.57231,4.21485 -2.3542,1.23879 -4.8836,2.31578 -7.62109,3.23828 -63.0698,21.25993 -125.92,43.17069 -188.8399,64.89062 -4.7287,1.62958 -9.389,3.47878 -15.7265,5.83789 159.7882,35.7796 317.8694,71.18117 475.8476,106.55078 v 16.84961 C 785.43155,179.64926 614.56944,141.76941 443.15995,103.76953 v 592.57419 l 0.022,-0.053 v 4.7773 h -0.022 v 0 h -1.9472 l -5.9317,14.3887 c 24.1793,-0.6701 48.3004,-3.4197 72.4297,-5.3496 16.3,-1.31 32.5885,-2.8711 48.8984,-4.0411 28.57,-2.05 57.1606,-3.7496 85.7305,-5.8496 37.2599,-2.74 74.4999,-5.8196 111.7598,-8.5996 24.5499,-1.83 49.1315,-3.3596 73.6914,-5.0996 35.0099,-2.49 70.0194,-5.0599 105.0293,-7.5898 13.5399,-0.98 27.0794,-1.9397 40.8594,-2.9297 v -37.9707 h -34.7891 l -0.01,-0.02 V 245.38086 C 783.32095,212.27095 628.48025,179.30951 473.62074,146.34961 l -0.1309,-12.2793 v -0.002 l 463.53911,101.58008 c 23.06989,4.13997 41.42049,-12.89962 29.0605,-34.76953 -17.45991,-14.67997 -35.27871,-28.94027 -52.63871,-43.74024 -52.37979,-44.65985 -104.611,-89.48943 -156.88079,-134.27929 -8.9,-7.62998 -17.73,-15.3394 -26.4199,-22.85938 z m -18.1895,60.83985 c 12.8475,-0.225 23.4952,7.11475 28.1133,18.20312 0.7697,1.84797 1.3721,3.79937 1.7891,5.83789 v 0.002 c 0.4167,2.03796 0.6489,4.1624 0.67769,6.35547 v 0.002 c 0.03,2.24303 -0.14,4.42285 -0.4942,6.52148 v 0.002 c -0.35419,2.09857 -0.8922,4.11543 -1.59569,6.03125 -0.7037,1.91705 -1.5731,3.73203 -2.59181,5.42774 -1.01829,1.69518 -2.1861,3.26945 -3.48429,4.70507 -2.59671,2.87179 -5.7168,5.18604 -9.2246,6.78907 -1.7537,0.80139 -3.60401,1.4248 -5.5332,1.85156 -1.9293,0.42676 -3.9379,0.65812 -6.0079,0.67187 -2.0387,0.0125 -4.0201,-0.19245 -5.9257,-0.59375 -9.5275,-2.00637 -17.1842,-8.95821 -20.8965,-18.5957 v -0.002 c -1.4849,-3.85535 -2.3378,-8.139 -2.4278,-12.70898 -0.041,-2.11683 0.1098,-4.17781 0.4375,-6.16211 v -0.002 c 1.3119,-7.93951 5.4463,-14.67102 11.3477,-19.02929 2.9507,-2.17914 6.3441,-3.76532 10.0469,-4.61133 1.8514,-0.42301 3.7795,-0.66032 5.7695,-0.69531 z m -196.9805,127.00976 c 13.6,3.29998 24.9905,6.12032 36.4004,8.82031 6.54,1.55 13.21,2.60947 19.67,4.43945 5.18989,1.47 7.83759,4.37404 8.21669,8.60352 0.1264,1.40964 4e-4,2.96602 -0.3671,4.66602 v 0.002 c -0.3475,1.60908 -0.8338,2.95314 -1.4649,4.03906 -0.6315,1.08707 -1.4083,1.91439 -2.3418,2.49024 -1.8662,1.15118 -4.3532,1.29546 -7.5332,0.48046 -3.36,-0.86499 -6.7288,-1.70976 -10.1094,-2.44921 -10.1417,-2.21841 -20.3901,-3.4968 -30.83,-1.5918 -2.685,0.49 -5.2802,1.46234 -7.8516,2.5625 -2.5714,1.10015 -5.119,2.32813 -7.709,3.32812 -1.165,0.45 -2.3373,0.88088 -3.6211,1.22461 -1.2838,0.34373 -2.6791,0.60032 -4.289,0.69532 v -0.002 c 2.5096,-2.58465 5.0158,-5.15058 7.2343,-7.81054 v -0.002 c 1.1094,-1.33018 2.1475,-2.68329 3.0782,-4.07422 4.6531,-6.95519 6.63,-14.84339 1.5175,-25.41211 z M 596.16975,207 c 9.14,2.07999 17.9477,4.00324 26.5664,5.94336 8.6187,1.93963 17.0486,3.89517 25.4336,6.03515 1.8775,0.48 3.4274,1.35651 4.625,2.49415 0.5988,0.5688 1.10929,1.20171 1.5293,1.88476 1.2606,2.04905 1.7016,4.53628 1.2461,7.01172 v 0.002 c -0.30381,1.64935 -1.0063,3.29438 -2.1309,4.79883 -2.23001,2.97999 -4.62841,4.07936 -8.64841,2.85938 -9.3075,-2.8125 -18.77919,-4.81017 -28.4258,-4.71289 -3.2155,0.0324 -6.4501,0.29875 -9.7051,0.84375 -1.715,0.28498 -3.39149,0.81414 -5.05269,1.42773 -1.6612,0.61359 -3.3071,1.31164 -4.957,1.93164 -2.89,1.08 -5.71041,2.33977 -8.5704,3.50977 -0.58,-0.47 -1.17,-0.94016 -1.75,-1.41016 2.1097,-2.31463 4.2099,-4.63331 6.0645,-7.02734 v -0.002 c 0.9271,-1.19679 1.79459,-2.41213 2.5703,-3.65625 v -0.002 c 2.3274,-3.73318 3.83989,-7.72002 3.75199,-12.20898 v -0.002 c -0.03,-1.49598 -0.2359,-3.04752 -0.6504,-4.66406 v -0.002 c -0.4149,-1.61726 -1.03779,-3.29844 -1.89649,-5.05469 z m 77.93939,16.00976 c 4.85001,1.11 9.89121,2.29969 14.9512,3.42969 11.86,2.65 23.7989,4.95977 35.5488,8.00977 0.9413,0.24375 1.799,0.57591 2.57231,0.98242 v 0 c 1.5459,0.81295 2.7503,1.92273 3.5898,3.21289 1.25969,1.93552 1.69899,4.27718 1.2363,6.63672 v 0.002 c -0.05,0.25615 -0.1784,0.50958 -0.25,0.76563 -0.1483,0.53036 -0.2764,1.06259 -0.51751,1.58593 -0.1399,0.30366 -0.3695,0.5917 -0.5411,0.89063 -0.26649,0.46418 -0.4976,0.93534 -0.8418,1.38281 v 0.002 c -0.5025,0.65498 -1.0105,1.19924 -1.5468,1.63476 -1.0727,0.87104 -2.2575,1.30162 -3.7227,1.28516 -0.7326,-0.008 -1.5347,-0.12688 -2.4297,-0.35938 -6.515,-1.69499 -13.0675,-3.27351 -19.6914,-4.11133 -6.6239,-0.83732 -13.3191,-0.93492 -20.1191,0.33008 -1.34,0.25 -2.6494,0.67844 -3.9453,1.16992 -1.2959,0.49149 -2.5783,1.04602 -3.8633,1.54102 -4.05,1.55 -8.0716,3.18907 -12.1016,4.78906 -0.35,-0.53 -0.7086,-1.05984 -1.0586,-1.58984 2.88721,-3.39711 6.5224,-6.48601 9.0625,-10.01953 v -0.002 c 0.84671,-1.17801 1.5725,-2.40398 2.1075,-3.70898 l 0.01,0.0195 c 0.5275,-1.2825 0.8622,-2.64393 1.0742,-4.06445 0.6363,-4.26212 0.1671,-9.05197 0.4746,-13.81446 z m -121.80849,2.39844 c 0.74,0.03 1.4692,0.14172 2.1992,0.26172 4.4025,0.7325 7.7577,1.11187 10.2773,1.60547 2.52049,0.49376 4.20299,1.10084 5.26369,2.29102 0.52981,0.59446 0.9054,1.3341 1.1504,2.27734 v 0.002 c 0.73491,2.83181 0.307,7.49823 -0.5703,15.57422 -13.46,-1.74 -26.57119,-3.43914 -39.62109,-5.11914 v -0.002 c 0.6825,-2.2825 1.6512,-4.50417 2.89649,-6.54688 1.2452,-2.04271 2.7664,-3.905 4.55461,-5.4707 0.8945,-0.78325 1.8543,-1.49195 2.8809,-2.11133 3.07849,-1.85736 6.7463,-2.91172 10.9688,-2.76172 z m 197.30849,13.91016 c 16.31,3.62997 32.3511,7.00987 48.29111,10.83984 1.88739,0.4525 3.48159,1.20929 4.7578,2.18555 3.8286,2.92823 4.7893,7.83126 2.17179,12.40625 -0.49,0.855 -1.00919,1.57871 -1.58,2.17187 -0.5711,0.59349 -1.1921,1.05532 -1.8907,1.38282 -0.6981,0.32754 -1.4717,0.51996 -2.3437,0.57812 -0.872,0.0582 -1.8431,-0.0174 -2.9356,-0.23242 -9.8599,-1.93 -19.8401,-3.30969 -29.83,-4.42969 -1.6025,-0.18 -3.1891,-0.23436 -4.7578,-0.1582 -4.7061,0.22849 -9.2443,1.61728 -13.5118,4.19726 -1.1999,0.725 -2.5206,1.24918 -3.873,1.72071 -1.3524,0.47152 -2.7364,0.89039 -4.0664,1.40039 v -0.002 c -0.4097,-0.5196 -0.821,-1.03921 -1.2207,-1.54883 v -0.002 c 1.6747,-2.33957 3.633,-4.57896 5.4062,-6.88476 v -0.002 c 0.8865,-1.15269 1.7265,-2.3208 2.4629,-3.52735 v -0.002 c 0.7363,-1.20652 1.3699,-2.45006 1.8399,-3.75195 v -0.002 l 0.012,-0.01 c 0.4448,-1.22691 0.7187,-2.51537 0.8828,-3.84375 v -0.002 c 0.1641,-1.32907 0.2179,-2.69719 0.2246,-4.08593 0.013,-2.77752 -0.1641,-5.63149 -0.039,-8.39649 z m -124.3378,2.63086 c 1.6062,-0.1075 3.2981,-0.01 4.8281,0.0703 8.365,0.42 13.326,1.65445 15.8262,4.83203 1.25,1.58879 1.8852,3.66233 2.0234,6.36328 v 0.002 c 0.138,2.70067 -0.2216,6.02884 -0.959,10.12304 -13.14999,-1.47 -25.88099,-2.87906 -38.4609,-4.28906 v -0.002 c 0.3925,-1.745 0.9875,-3.37849 1.75391,-4.90625 1.5326,-3.05548 3.75189,-5.68683 6.4043,-7.9375 1.32669,-1.1258 2.7605,-2.15545 4.2734,-3.09571 1.185,-0.73999 2.7043,-1.05265 4.3106,-1.16015 z m -94.80079,8.98047 c 9.10749,-0.30306 18.1816,0.13927 27.18359,1.6289 3.0006,0.49655 5.9934,1.10899 8.9765,1.84961 1.31,0.325 2.52651,1.01342 3.7188,1.79883 1.1922,0.78492 2.3603,1.66781 3.5703,2.38281 -0.01,0.96 -0.029,1.91914 -0.039,2.86914 v 0.002 c -1.075,0.54499 -2.2958,1.45459 -3.4336,2.15429 -1.1377,0.69971 -2.1925,1.18953 -2.9375,0.89453 -4.4924,-1.77748 -9.00649,-3.12038 -13.5429,-4.07812 -4.5364,-0.95756 -9.0957,-1.531 -13.6739,-1.77148 -9.1562,-0.481 -18.3931,0.37062 -27.7031,2.14062 -0.54999,0.105 -1.1317,0.30027 -1.69529,0.43359 -0.56361,0.13332 -1.109,0.20469 -1.584,0.0547 -1.97001,-0.61 -3.7899,-1.69813 -5.6699,-2.57812 v -0.002 c 0.63,-0.77 1.1844,-1.72947 1.7832,-2.57422 0.5988,-0.84522 1.2419,-1.57476 2.0469,-1.88476 3.43,-1.32 7.16979,-2.14 10.8398,-2.5 4.0575,-0.4025 8.1124,-0.68563 12.1602,-0.82031 z m 292.91989,3.42968 c 3.06,0.71 6.4095,1.50001 9.7695,2.25 12.03,2.67 24.0901,5.1693 36.0801,8.0293 3.67,0.875 6.3257,2.66736 7.77341,4.98633 1.4477,2.31896 1.6874,5.16454 0.52739,8.14453 -0.3925,1.01 -0.83439,1.87559 -1.3555,2.5957 -1.5634,2.16128 -3.839,3.00144 -7.63469,2.42383 -5.95501,-0.9 -11.9476,-1.59812 -17.9551,-2.17773 -6.00751,-0.57961 -12.03,-1.04071 -18.0449,-1.47071 -1.385,-0.1 -2.8229,0.21166 -4.2579,0.67774 -1.4349,0.46607 -2.8671,1.08656 -4.2421,1.60156 -3.45001,1.3 -6.7705,2.94922 -10.1504,4.44922 -0.46001,-0.46 -0.9209,-0.92867 -1.3809,-1.38867 v -0.002 c 1.2516,-1.73242 2.6755,-3.40026 4.0449,-5.08789 0.35379,-0.43606 0.7018,-0.87452 1.04489,-1.31445 0.83541,-1.07078 1.6273,-2.15699 2.32231,-3.2793 v -0.002 c 0.6949,-1.12228 1.2934,-2.27974 1.7383,-3.49414 v -0.002 l 0.01,-0.01 c 0.8998,-2.45942 1.20079,-5.1427 1.33979,-7.98437 v -0.002 c 0.139,-2.84241 0.1161,-5.84336 0.3711,-8.94336 z m -121.29099,1.82032 c 6.26,0.17 12.5509,1.3797 18.7012,2.67968 0.7604,0.1601 1.6363,0.83481 2.3476,1.67188 0.7105,0.83608 1.2566,1.83414 1.3516,2.63867 0.255,2.195 0.29999,4.41233 0.2812,6.65625 -0.019,2.24344 -0.1015,4.51251 -0.1015,6.8125 v 0.002 h -0.01 c -13.58,-1.64998 -26.4201,-3.22125 -39.25,-4.78125 0.3249,-2.15936 1.0301,-4.23328 2.0293,-6.125 v -0.002 c 0.9994,-1.89169 2.2956,-3.60166 3.7988,-5.03516 2.2558,-2.15111 4.9803,-3.67864 7.8906,-4.26171 0.97,-0.19433 1.961,-0.28336 2.961,-0.25586 z m -180.0391,11.77929 c 5.565,-0.16 11.1395,-0.0238 16.7168,0.17383 5.5773,0.19719 11.1575,0.45688 16.7324,0.54688 2.3,0.04 3.6451,0.68875 4.4141,1.82031 0.3845,0.56578 0.6258,1.25269 0.7695,2.04297 0.1437,0.79009 0.19,1.68352 0.1875,2.66601 v 0.002 c -0.05,29.55926 0.07,59.12824 0.08,88.6875 v 0.002 c 0.03,69.78979 0.019,139.58912 0.029,209.37891 v 8.04882 0.002 c -15.1999,0 -29.3901,-0.0609 -43.5801,0.0391 -2.2911,0.015 -3.2369,-0.75333 -3.6113,-1.86524 -0.3746,-1.11094 -0.1779,-2.56441 -0.1777,-3.92382 v -0.002 c -0.02,-29.74926 -0.041,-59.49878 -0.031,-89.24804 v -0.002 -0.008 -0.002 c 0.02,-69.78979 0.04,-139.58912 0.08,-209.37891 0,-4.05498 0.013,-6.24054 1.0684,-7.4414 1.0551,-1.20137 3.1522,-1.41907 7.3222,-1.53907 z m 75.1602,0.16993 c 15.0699,0.40997 30.1395,1.24007 45.1894,2.08007 0.985,0.055 1.9958,0.28762 2.9785,0.62891 0.9828,0.3408 1.9375,0.79125 2.8125,1.28125 0.9359,0.5255 1.6122,1.0735 2.0313,1.66797 0.4183,0.59334 0.58,1.23112 0.4824,1.93555 v 0.002 c -0.098,0.7047 -0.453,1.47575 -1.0683,2.33398 v 0.002 c -0.6157,0.85832 -1.4908,1.80512 -2.625,2.85937 -4.3906,-1.63773 -8.7897,-2.90726 -13.2012,-3.85156 -4.4102,-0.94413 -8.832,-1.56343 -13.2675,-1.90039 v 0 c -4.4362,-0.33694 -8.8857,-0.39152 -13.3516,-0.20703 -4.4658,0.18448 -8.9472,0.60851 -13.4472,1.22851 -2.03,0.28 -4.1499,0.90031 -6.0899,0.57031 -0.7204,-0.12507 -1.5221,-0.5133 -2.2148,-1.03125 -0.6924,-0.51746 -1.2747,-1.16359 -1.5547,-1.80859 -0.32,-0.72 1.2894,-3.12024 2.4394,-3.49023 h -0.01 c 1.765,-0.57 3.582,-1.17053 5.4121,-1.61524 1.8301,-0.44519 3.6733,-0.73554 5.4883,-0.68554 z m 178.8086,4.33007 c 6.19,-0.17 12.4304,1.22993 18.6504,1.91993 1.6358,0.18507 2.7086,0.77342 3.3613,1.69921 0.3264,0.46249 0.5475,1.00775 0.6816,1.63086 0.1342,0.62312 0.1807,1.32235 0.1582,2.08985 v 0.002 c -0.1199,4.06999 -0.031,8.149 -0.031,12.20898 v 0.01 c -12.64,-1.55 -24.4286,-2.999 -36.2285,-4.45898 v -0.002 c 0,-1.85935 0.3762,-3.72056 1.0547,-5.46875 v -0.002 c 0.6786,-1.74819 1.6619,-3.38331 2.875,-4.79297 2.4271,-2.82059 5.7779,-4.73592 9.4785,-4.83594 z m -86.1485,6.72071 c 10.13,1.41998 20.2592,2.77009 30.3692,4.33007 0.985,0.15 2.0977,0.37895 3.0976,0.74415 0.9999,0.36469 1.8869,0.86468 2.4219,1.55468 v 0.002 c 0.5344,0.68498 0.8486,1.71065 0.9512,2.78125 v 0.002 c 0.1023,1.07064 -0.01,2.18547 -0.3106,3.04492 v 0.002 c -0.165,0.46 -1.0203,0.90071 -2.0039,1.16797 -0.9836,0.26727 -2.0954,0.3611 -2.7754,0.1211 -15.5099,-5.51999 -31.4603,-5.70969 -47.5703,-4.42969 -1.395,0.11 -2.7874,0.39666 -4.1738,0.63672 -1.3864,0.24006 -2.7667,0.43351 -4.1367,0.35351 -0.81501,-0.045 -1.6098,-0.46017 -2.3985,-0.97656 -0.7887,-0.51639 -1.5713,-1.13398 -2.36131,-1.58398 0.53971,-0.66461 1.02521,-1.53745 1.54101,-2.28711 0.5164,-0.75055 1.0631,-1.37764 1.7285,-1.55274 h 0.02 c 4.66,-1.22 9.4715,-2.06031 14.2715,-2.57031 3.68989,-0.39 7.45939,-0.0801 11.1894,-0.0801 0.05,-0.42 0.091,-0.83977 0.14059,-1.25976 z m -72.0351,3.82617 c 3.5306,0.0981 7.0609,0.36115 10.5957,0.83789 3.5348,0.47625 7.0741,1.16524 10.6191,2.11523 v 0.002 294.81836 h -47.76951 c -0.1,-1.95 -0.2813,-3.91844 -0.2813,-5.89844 v -0.002 c 0,-94.4697 0.04,-188.93066 -0.07,-283.40039 0,-1.10998 0.054,-2.09923 0.211,-2.96679 0.4714,-2.60323 1.8677,-4.10969 5.4902,-4.49219 7.085,-0.745 14.1439,-1.20992 21.2051,-1.01367 z m 235.9414,3.07031 c 1.2287,0.0987 2.474,0.31844 3.664,0.52344 6.345,1.0875 9.9945,1.44947 12.02149,2.39648 1.3514,0.63134 1.9814,1.52296 2.209,3.06055 0.3413,2.30608 -0.2236,6.06841 -0.6211,12.5918 l -0.01,-0.008 c -10.71,-1.08999 -21.0802,-2.05078 -31.4102,-3.30078 -1.53,-0.19 -4.2396,-2.08891 -4.0996,-2.6289 v -0.002 c 0.35,-1.42499 0.7046,-3.04652 1.2305,-4.5039 0.5258,-1.45787 1.2228,-2.75063 2.2578,-3.51563 3.13,-2.30999 7.3014,-3.43017 11.1914,-4.41015 1.125,-0.28001 2.3376,-0.30188 3.56641,-0.20313 z m -177.0567,9.99219 c 10.63,0.2 21.2692,0.31976 31.8692,1.00976 1.9625,0.1275 3.4351,0.24711 4.541,0.47852 1.1059,0.23141 1.8446,0.57476 2.3379,1.15039 0.4932,0.57564 0.7425,1.38281 0.8672,2.54297 v 0.002 c 0.1245,1.15997 0.125,2.67209 0.125,4.65625 v 0.002 c -0.01,77.05976 -0.041,154.11969 -0.061,231.18945 0,12.33931 0.031,24.68999 0.051,37.02929 v 0.002 h -0.01 v 6.61914 h -47.1503 v -33.65039 c 0.03,-81.17976 0.1294,-162.34954 -0.061,-243.5293 v -0.002 c 0,-1.4975 0.1576,-2.72 0.4766,-3.71094 0.3189,-0.99094 0.797,-1.74961 1.4277,-2.31836 1.2613,-1.1375 3.13599,-1.5157 5.5859,-1.4707 z m 106.7403,0.48047 c 4.5599,0.03 9.1787,1.35008 13.6386,2.58008 1.8,0.49997 3.2108,2.35963 4.8008,3.5996 v 0.002 2.14844 0.002 c -0.945,0.47 -2.0051,1.24863 -3,1.84961 -0.9948,0.60097 -1.9243,1.02429 -2.6093,0.77929 -8.41,-3.04998 -16.8932,-4.53084 -25.4434,-4.9375 -8.5502,-0.40617 -17.1677,0.26282 -25.8477,1.50782 -1.5825,0.225 -4.1208,-0.10798 -5.498,-0.80664 -0.4591,-0.23289 -0.7896,-0.505 -0.9121,-0.8125 v -0.002 c -0.6626,-1.66947 -0.2067,-2.75327 0.6133,-3.53515 0.1201,-0.11434 0.1529,-0.29385 0.291,-0.39258 0.5417,-0.38783 1.2075,-0.65774 1.8945,-0.83789 0.686,-0.1799 1.3917,-0.26992 2.0117,-0.29492 l 0.01,-0.008 v -0.002 c 13.3399,-0.57 26.7008,-0.92984 40.0508,-0.83984 z m 70.3086,12.30078 c 5.31,0.03 10.6806,1.60978 15.8906,3.00976 0.97,0.26 1.8396,0.88946 2.68359,1.6211 0.84401,0.73115 1.6623,1.56351 2.5273,2.22851 v 0.002 c -0.02,0.81932 -0.041,1.62792 -0.061,2.44726 v 0.002 c -1.4325,0.59998 -3.0779,1.82323 -4.4317,2.1914 -0.4512,0.12272 -0.8707,0.1518 -1.2382,0.0293 -17.1,-5.71999 -34.4306,-6.15039 -52.0606,-3.40039 -0.83,0.13 -1.7319,-0.22684 -2.6543,-0.71094 -0.9224,-0.4841 -1.8654,-1.09547 -2.7754,-1.48047 1.0425,-1.2075 2.0449,-3.15851 3.1055,-4.0957 0.3535,-0.31258 0.714,-0.51266 1.084,-0.53516 6.3133,-0.38985 12.6338,-0.73954 18.957,-0.98047 6.3232,-0.24142 12.6493,-0.37311 18.9727,-0.32812 z m -99.8594,1.90039 c 10.0118,-0.0995 20.0446,0.45551 30.0566,0.89453 0.048,0.002 0.096,0.002 0.1446,0.004 1.1,0.0475 2.0703,0.18707 2.9082,0.45312 2.5135,0.79759 3.8278,2.73556 3.8203,6.74805 v 0.0195 c -0.22,84.73973 -0.19001,169.46925 -0.25,254.20898 v 0.002 c -2e-4,2.55935 -0.3892,5.11061 -0.6192,7.91992 h -44.6699 v -10.99024 c 0.02,-83.42974 0.029,-166.84954 0.049,-250.27929 v -0.002 c 0,-1.95248 0.041,-3.48397 0.2266,-4.68554 0.5561,-3.60529 2.409,-4.23297 8.33399,-4.29297 z m 73.3398,12.67773 c 5.11,-0.19 10.2331,-0.0586 15.3594,0.17774 5.1263,0.23631 10.2559,0.5775 15.3809,0.8125 2.1458,0.10004 3.5775,0.71648 4.4726,1.86719 0.4471,0.57468 0.7604,1.28264 0.961,2.12695 v 0.002 c 0.2004,0.84457 0.2896,1.8241 0.2871,2.94336 v 0.002 c -0.13,40.40923 0.019,80.82906 0.029,121.23829 v 0.002 c 0.01,40.22923 -0.03,80.4485 -0.08,120.67773 v 0.002 c 0,1.97873 0,3.46647 -0.1328,4.58398 v 0.002 c -0.1301,1.11665 -0.388,1.86565 -0.8926,2.36719 -1.0099,1.00381 -3.0142,1.02211 -6.9941,1.03711 -11.92,0.04 -23.8497,0.01 -36.5996,0.01 v -29.16016 c 0.02,-73.14979 0.04,-146.30921 0.07,-219.45898 v -0.002 c 0,-2.04749 -10e-5,-3.62866 0.1269,-4.85351 0.1271,-1.22505 0.3821,-2.09229 0.8906,-2.71485 1.0172,-1.24511 3.0512,-1.50515 7.1211,-1.66015 z m -92.5293,265.64063 h 66.627 v 0.002 c -0.016,1.17709 -0.1256,2.19513 -0.35351,3.06055 -0.2281,0.86651 -0.5746,1.57882 -1.0664,2.14453 -0.9831,1.1312 -2.5437,1.67383 -4.8867,1.67383 -17.01,0 -34.0311,0.27095 -51.0411,0.46093 -2.2005,0.025 -4.0895,-0.38896 -5.6445,-1.51953 -0.7774,-0.56498 -1.4713,-1.30885 -2.0781,-2.26757 -0.6068,-0.95874 -1.1267,-2.13024 -1.5567,-3.55274 z m -153.9804,0.1914 h 70.4101 c 0.315,2.33 0.078,4.06017 -0.7773,5.21289 -0.855,1.15274 -2.3275,1.72805 -4.4824,1.74805 -18.66,0.17 -37.3108,0.37922 -55.9707,0.44922 -1.055,0.005 -2.0569,-0.0961 -2.9903,-0.33984 -0.9338,-0.24388 -1.798,-0.63127 -2.582,-1.19922 -1.5674,-1.13504 -2.8074,-2.9911 -3.6074,-5.8711 z m 227.7695,0.0391 h 66.4805 0.01 v 0.002 c -0.46001,4.66 -2.4597,6.58836 -6.9297,6.56836 -16.98991,-0.1 -33.97901,3.9e-4 -50.9589,0.15039 -3.16561,0.03 -5.6115,-0.67746 -7.2442,-3.34961 -0.5439,-0.89009 -0.9975,-1.99759 -1.3574,-3.36914 z m -149.6094,0.041 h 68.7598 c -0.035,2.365 -0.5492,4.03076 -1.6152,5.10938 -0.5332,0.53989 -1.2034,0.93268 -2.0215,1.1914 -0.8176,0.25855 -1.7824,0.38368 -2.9024,0.38868 -17.3499,0.05 -34.691,0.3514 -52.041,0.4414 -2.25,0.01 -4.5123,-0.0639 -6.3535,-0.99414 -1.8412,-0.93021 -3.2612,-2.71672 -3.8262,-6.13672 z m -157.7597,0.0586 h 72.5605 l -0.01,0.01 v 0.002 c -0.46,4.89999 -2.2114,7.43946 -6.9414,7.43946 -19.0799,0.02 -38.1603,0.13992 -57.2402,0.16992 -2.33,0 -4.479,-0.25566 -6.0176,-1.33594 -0.76961,-0.54015 -1.3871,-1.28613 -1.7969,-2.31054 -0.4095,-1.02336 -0.6119,-2.3238 -0.5546,-3.97266 z m 371.5,12.58007 v 0.002 13.57812 0.002 h -21.1504 c -8.41,0.02 -16.8303,-0.0509 -25.24031,0.11914 -3.26999,0.07 -4.5601,-1.46891 -4.16009,-4.37891 v -0.002 c -0.12132,-3.41961 -0.76492,-6.99882 3.4199,-7.39063 15.5899,-0.77 31.1909,-1.29969 47.1309,-1.92969 z m -73.0899,0.11133 c 0,4.23 0.041,7.17891 -0.019,10.12891 v 0.002 c -0.02,1.08 -0.2813,2.15915 -0.6113,4.61914 -15.69001,0 -31.3288,0.0509 -46.9688,-0.0391 -1.0225,-0.005 -1.7397,-0.22007 -2.2402,-0.57617 -0.5011,-0.35647 -0.7846,-0.85456 -0.9414,-1.42969 -0.3139,-1.14877 -0.1189,-2.60117 -0.1289,-3.82617 -0.01,-1.56 -0.1252,-3.2644 0.3535,-4.60547 0.4786,-1.34156 1.551,-2.31883 3.916,-2.42383 h 0.01 c 15.2899,-0.65 30.5709,-1.21961 46.6308,-1.84961 z m -124.791,2.3086 h 51.02149 v 0.002 14.00781 0.002 h -51.0215 v -0.002 -14.00781 z m -78.0293,0.0625 0.01,0.008 h 52.291 v 0.002 17.08789 0.002 c -16.45,0.43 -32.6401,0.9189 -48.8301,1.1289 -0.5704,0.005 -1.372,-0.49108 -2.0449,-1.13672 -0.6727,-0.64498 -1.2156,-1.4382 -1.2656,-2.0332 -0.39,-4.58999 -0.1602,-9.23862 -0.1602,-15.05859 z m -25.1992,0.58789 v 0.002 18.61719 0.002 h -56.9199 v -0.002 c 0,-4.90999 -0.2601,-9.94947 0.1699,-14.93946 l 0.01,0.01 c 0.055,-0.66 0.64,-1.53713 1.371,-2.25195 0.7311,-0.71483 1.6081,-1.26735 2.2481,-1.27735 17.5499,-0.23 35.1011,-0.16015 53.1211,-0.16015 z m 324.3789,16.5 c 1.46,-0.05 2.9208,0 4.5508,0 v 0.002 c 0.33,1.18 0.4897,1.52891 0.5097,1.87891 0.7425,12.56246 0.9331,15.79196 -6,17.00196 -123.199,7.30394 -246.51085,13.60554 -369.7695,20.1192 -3.79,0.2 -7.6111,0.029 -12.1211,0.029 v 0 c 1.1399,-7.6792 2.3602,-14.6792 3.1602,-21.7285 0.4,-3.54 2.6111,-3.5196 5.1211,-3.5996 36.2598,-1.18 72.5291,-2.2118 108.789,-3.5918 61.8598,-2.35 123.7105,-4.9592 185.5703,-7.3692 26.72,-1.03999 53.4596,-1.84022 80.1895,-2.74022 z m 65.25,25.58007 v 0 c 0,6.3359 0.2684,12.282 -0.2402,18.1582 -0.1,1.12 -3.2189,2.6718 -5.0489,2.8418 -149.78544,10.69122 -299.55246,21.87685 -449.4414,31.0586 -11.51328,0.87537 -11.26284,-8.53407 -8.36596,-16.7825 2.13793,-6.08737 10.94162,-11.96206 12.29756,-12.18406 147.87635,-11.90937 296.23566,-16.66448 444.4396,-23.07444 2.01,-0.09 4.0394,-0.01 6.3594,-0.01 z"
         sodipodi:nodetypes="ccccssscccccccccccccccccccccccccccccccscscssccssssssssscscccsssscsccssccsscssssscccccccsccscccccscscccccccssccsscccsssccsssccsscccscccccccsscccsscccccssccccccssscsssscccccccccccsscccscssscccssccssssccscscsscscccsccsscccscccscsccccsscccccssscscscsscccccsscssccsssssscccccsssccscccscsccssscccssssscsccccscccsssssccsccscccccccssccsccscscsccccccccccccsscscccscsscccccsccsssssssssscscccccsssscsccccccscccsccscscccccscscsscsccscscccsssccsssscccsscsscscsccssssssssscccssssscccsssscssscccsccssccccsccsccccssccsccccsccssccccccccssccccssccsccsccccccccccccccccccccsccccccccsccscccccccscsscccccccscsscsc" /><path
         id="path18"
         d="m 443.18139,696.29102 -1.9687,4.77734 h 1.9687 z m -1.9687,4.77734 h -8.4219 V 125.67969 c -138.7797,24.95994 -276.67041,49.76059 -415.91021,74.81055 0,-8.32505 -0.1251,-16.03271 0.1602,-23.73047 H 2.71068 c -0.02,96.3898 0.04,192.78009 -0.09,289.16991 -0.09,64.16987 -0.4298,128.33991 -0.7598,192.50977 -0.01,2.06 -1.0893,4.11916 -1.8691,6.86914 9.7098,1.13 20.0484,2.37102 30.3984,3.54102 30.86,3.47 61.7316,6.89914 92.60161,10.36914 16.5498,1.86 33.1101,3.72992 49.6601,5.66992 30.74001,3.61 61.47911,7.25016 92.20901,10.91016 22.66,2.7 45.31099,5.45969 67.961,8.17969 20.3199,2.43998 40.6385,4.91148 60.9785,7.27148 13.82,1.6 27.7005,4.58898 41.4805,4.20898 z"
         sodipodi:nodetypes="cccccccccccccccccccsccc"
         style="font-variation-settings:normal;opacity:1;vector-effect:none;fill:none;fill-opacity:1;stroke:#000000;stroke-width:12;stroke-linecap:round;stroke-linejoin:round;stroke-miterlimit:4;stroke-dasharray:none;stroke-dashoffset:0;stroke-opacity:1;-inkscape-stroke:none;stop-color:#000000;stop-opacity:1"
         inkscape:label="left wall" /><path
         d="M 724.14999,0 267.03001,77.12 -3.289996,170.75 v 6.49586 m 0,0 c 0,0 17.953507,0.26 19.273507,0 40.19,-7.68 78.886499,-18.60586 119.116489,-26.09586 31.60001,-5.88 63.22001,-11.6 94.84001,-17.36 56.82001,-10.35 113.64,-20.69 170.47001,-31.03 8.45,-1.54 16.90999,-3.07 25.26,-4.58 0.28999,-0.43 0.72,-0.77 0.66999,-1.02 -1.29999,-7.72 2.28,-10.81 9.66,-12.9 26.61,-7.52 53.07,-15.57 79.43,-23.94 C 553.89998,48.1 685.78999,12.57 724.14999,0"
         id="path1-5"
         inkscape:label="left ceil"
         style="fill:none;fill-opacity:1;stroke:#000000;stroke-width:12;stroke-linecap:round;stroke-linejoin:round;stroke-dasharray:none;stroke-opacity:1"
         sodipodi:nodetypes="cccccccccccccc" /></g><path
       id="path16"
       style="display:inline;fill:url(#linearGradient35);fill-opacity:1;stroke-width:1.05432"
       inkscape:label="Outline"
       d="m 736.05012,21.847246 -76.45534,19.829468 c -39.71871,13.49468 -79.41675,27.053723 -119.24936,40.172657 -27.29369,8.985714 -54.69064,17.627331 -82.24318,25.700529 -7.6414,2.24373 -11.34838,5.56148 -10.00233,13.84938 0.0518,0.26839 -0.39338,0.6329 -0.69365,1.09454 -8.64577,1.62108 -17.40519,3.26371 -26.15449,4.917 -58.84293,11.10064 -117.67639,22.20055 -176.50897,33.31191 -32.73997,6.18373 -65.47991,12.32594 -98.19918,18.63849 -41.65495,8.04097 -83.288177,16.21007 -124.901708,24.45502 -1.366756,0.27913 -3.509755,1.87924 -3.551172,2.93133 -0.30027,8.29863 -0.165829,16.60812 -0.165829,25.58311 C 162.0968,205.43793 304.87146,178.81292 448.56707,152.01681 v 617.7183 h 10.73642 V 128.49486 c 177.48135,40.79536 354.39481,81.46161 531.7312,122.22477 V 232.63051 C 827.45903,194.65862 663.77772,156.65564 498.32794,118.24359 c 6.56455,-2.53361 11.39012,-4.51953 16.28767,-6.26944 65.14863,-23.317775 130.22481,-46.840268 195.52876,-69.664205 11.33784,-3.961438 19.21693,-10.553718 25.90575,-20.462699 z m 1.57538,60.559873 c -16.4839,0.300599 -28.92094,14.557541 -28.57925,32.743671 0.37276,19.62474 13.39836,34.35446 30.28608,34.2471 17.14653,-0.11809 30.20492,-15.08357 29.95642,-34.35403 C 769.05061,96.202848 755.36223,82.08505 737.6255,82.407119 Z m -246.91761,78.617561 0.13548,13.18259 c 160.34516,35.38462 320.66986,70.77067 481.73979,106.31633 l -1.91714,-10.44628 z M 3.2530752,200.40263 c 0,222.39547 -0.018161,259.37563 -0.093023,316.89413 C 3.2946575,413.81607 3.2323665,310.33517 3.2530752,206.8545 Z M 533.66775,218.76016 v 0.0107 c 8.46975,18.15394 -1.85349,28.94413 -12.2491,40.04476 3.33405,-0.20399 5.7778,-1.09496 8.19033,-2.06117 5.36347,-2.14713 10.55152,-5.27187 16.11172,-6.32396 14.41305,-2.72683 28.47353,0.62376 42.38958,4.33829 6.58527,1.7499 10.30228,-0.61168 11.7415,-7.52542 1.52208,-7.30024 -0.96254,-12.1436 -8.12765,-14.24778 -6.6888,-1.96462 -13.595,-3.10202 -20.36664,-4.76604 -11.81415,-2.89862 -23.60803,-5.92641 -37.68974,-9.46916 z m 84.06528,20.55915 c 7.11335,15.08354 -1.44944,25.07753 -10.18838,35.01871 0.60055,0.50459 1.21145,1.00933 1.81198,1.51391 2.96132,-1.25607 5.88151,-2.60852 8.87389,-3.76798 3.41689,-1.33121 6.81284,-2.99456 10.36432,-3.6065 13.48116,-2.34036 26.63194,0.12792 39.48149,4.15377 4.16239,1.30976 6.64579,0.1295 8.95478,-3.06971 4.65939,-6.46284 2.31981,-15.31917 -5.45618,-17.38041 -17.364,-4.59483 -34.91442,-8.39577 -53.8419,-12.86179 z m 80.70016,17.1875 c -0.42453,6.81713 0.58106,13.68886 -1.60369,19.19624 l -0.0104,-0.0231 c -2.21579,5.60398 -7.57919,9.87728 -11.56554,14.74053 0.36238,0.56898 0.73367,1.1378 1.09606,1.70679 4.17275,-1.71769 8.33678,-3.47734 12.53023,-5.14137 2.66102,-1.06282 5.31024,-2.37357 8.08518,-2.91035 14.08172,-2.71612 27.72915,0.42003 41.22068,4.05941 3.70681,0.99841 5.89074,0.0638 7.97194,-2.74891 4.69045,-6.32329 2.36075,-14.50485 -5.43596,-16.5983 -12.16618,-3.27437 -24.52794,-5.75405 -36.808,-8.59899 -5.23924,-1.21313 -10.45899,-2.49034 -15.48077,-3.68198 z m -126.1232,2.57698 c -11.65883,-0.42944 -19.22857,8.33153 -22.05527,18.13315 13.51223,1.80358 27.08776,3.62772 41.0245,5.49572 2.4229,-23.12454 1.54163,-20.20446 -16.6921,-23.35001 -0.75586,-0.12882 -1.51091,-0.24667 -2.27713,-0.27886 z m 204.29749,14.93342 c -0.25884,5.9368 0.73684,12.26019 -1.1062,17.53137 l -0.0121,0.0107 c -1.9466,5.59327 -6.58423,10.18804 -10.0529,15.21231 0.41417,0.54752 0.83943,1.10662 1.26395,1.66487 2.7542,-1.09504 5.73567,-1.79403 8.22067,-3.3507 5.89154,-3.69304 12.27963,-5.10915 18.91667,-4.33618 10.34384,1.20238 20.67744,2.68358 30.88669,4.75555 4.52477,0.92326 7.0305,-0.51574 9.05994,-4.18732 3.6136,-6.54873 0.64227,-13.71998 -7.17515,-15.66312 -16.50459,-4.11174 -33.11384,-7.74024 -50.00154,-11.63726 z m -128.74208,2.82231 c -1.66315,0.11541 -3.23626,0.45106 -4.46323,1.24549 -6.26429,4.0366 -11.24637,9.62065 -12.87197,17.11412 13.02556,1.51371 26.20748,3.02644 39.82325,4.60457 3.05449,-17.58495 -0.16633,-21.98691 -17.48891,-22.8887 -1.5842,-0.0859 -3.336,-0.19088 -4.99914,-0.0755 z m -98.15874,9.64319 c -4.19117,0.14459 -8.38967,0.44645 -12.59088,0.87857 -3.79998,0.38647 -7.67229,1.2668 -11.2238,2.68391 -1.66701,0.6656 -2.6611,3.1358 -3.96573,4.78909 1.94658,0.94473 3.83098,2.11291 5.87074,2.76778 0.98367,0.32208 2.2565,-0.29875 3.39546,-0.52421 19.27952,-3.8004 38.25873,-3.65119 56.86525,3.98183 1.54277,0.63341 4.3706,-2.10292 6.59676,-3.27309 0.0104,-1.0199 0.0301,-2.0517 0.0405,-3.08231 -2.50572,-1.5352 -4.83444,-3.78934 -7.54725,-4.48715 -12.35514,-3.18044 -24.86744,-4.16821 -37.441,-3.73442 z m 303.29548,3.6799 c -0.52806,6.65608 0.0923,12.89317 -1.77154,18.17509 l -0.0104,0.0126 c -1.84305,5.21751 -6.21293,9.46851 -9.47451,14.14923 0.4763,0.49383 0.95347,0.99699 1.42977,1.49082 3.49973,-1.61035 6.93774,-3.38088 10.50993,-4.77651 2.8474,-1.10577 5.93296,-2.66168 8.80109,-2.44697 12.45609,0.92327 24.94329,1.98441 37.27515,3.91683 5.23923,0.82664 7.68307,-1.0516 9.30869,-5.38879 2.40216,-6.39844 -0.99484,-12.21598 -8.59482,-14.09471 -12.41468,-3.07039 -24.90198,-5.75565 -37.35806,-8.62207 -3.47902,-0.80516 -6.9472,-1.65327 -10.11559,-2.41549 z m -125.58728,1.95421 c -8.28336,-0.23617 -15.92446,7.55757 -17.27049,16.83314 13.28444,1.67476 26.57927,3.3616 40.64028,5.13297 h 0.0104 c 0,-4.93838 0.342,-9.7487 -0.18605,-14.46165 -0.19674,-1.72844 -2.25643,-4.2841 -3.83026,-4.62764 -6.36808,-1.39564 -12.8821,-2.69432 -19.36383,-2.87682 z m -186.41625,12.64792 c -8.63538,0.25765 -8.68783,0.93242 -8.68783,9.63901 -0.0414,74.92392 -0.0622,149.85972 -0.0829,224.78363 v 0.0107 c -0.0104,31.93848 0.0117,63.87707 0.0323,95.81553 0,2.92009 -0.81894,6.24713 3.9233,6.21492 14.69258,-0.10737 29.38533,-0.042 45.12372,-0.042 v -8.64302 c -0.0104,-74.92392 7.3e-4,-149.85762 -0.0303,-224.78152 -0.0104,-31.73451 -0.13469,-63.47926 -0.0829,-95.21377 0.0104,-4.21909 -0.79843,-6.92583 -5.56134,-7.01171 -11.54495,-0.19325 -23.1098,-1.11516 -34.63404,-0.77163 z m 77.82243,0.18242 c -3.75858,-0.10737 -7.63146,1.24408 -11.28651,2.46794 h 0.0104 c -1.19074,0.39722 -2.85719,2.97402 -2.52586,3.74698 0.57983,1.3849 2.41204,2.78037 3.90305,3.04877 2.00871,0.35427 4.20364,-0.31168 6.30555,-0.61228 18.63756,-2.66243 36.97442,-1.95337 55.15641,5.07846 4.70079,-4.53043 5.09595,-7.19371 1.22347,-9.4482 -1.81197,-1.05209 -3.95636,-1.93048 -5.99612,-2.04858 -15.58308,-0.90178 -31.18634,-1.79293 -46.79011,-2.23309 z m 185.14219,4.64862 c -7.66211,0.21471 -13.88315,8.22309 -13.88315,16.21038 12.21796,1.56741 24.42406,3.12298 37.51178,4.78701 v -0.0107 c 0,-4.35868 -0.0919,-8.73773 0.0323,-13.10712 0.0932,-3.29584 -0.96415,-5.42143 -4.34997,-5.81864 -6.44032,-0.74075 -12.90176,-2.24365 -19.311,-2.06115 z m -89.19992,7.213 c -0.0518,0.4509 -0.0938,0.90156 -0.14561,1.35244 -3.86211,0 -7.76509,-0.33272 -11.58579,0.086 -4.97002,0.54752 -9.95194,1.44965 -14.77698,2.7594 h -0.0202 c -1.3771,0.37575 -2.26709,2.69447 -3.38534,4.1223 1.63596,0.96622 3.24063,2.6523 4.92835,2.74892 2.83707,0.17178 5.7161,-0.82689 8.60493,-1.06308 16.68062,-1.37416 33.19595,-1.17052 49.25529,4.75555 1.40818,0.51531 4.60692,-0.39622 4.94861,-1.38389 0.6316,-1.84653 0.44457,-4.78817 -0.66333,-6.25895 -1.1079,-1.48152 -3.67526,-2.14797 -5.71504,-2.47004 -10.46809,-1.67475 -20.95604,-3.12415 -31.44485,-4.64861 z m -74.58672,4.10764 c -7.31136,-0.21068 -14.62023,0.28843 -21.95617,1.08824 -5.0011,0.54752 -5.90312,3.24317 -5.90312,8.00979 0.1139,101.41943 0.0728,202.82887 0.0728,304.24829 0,2.12565 0.18766,4.2389 0.2912,6.33236 h 49.46159 V 324.08889 c -7.34114,-2.03977 -14.65494,-2.96178 -21.96631,-3.17247 z m 244.29872,3.29618 c -1.27229,-0.10598 -2.52791,-0.0826 -3.69274,0.21806 -4.02778,1.05209 -8.34696,2.25466 -11.58781,4.73459 -2.14333,1.64255 -2.88706,5.55192 -3.61184,8.61157 -0.14496,0.57972 2.66062,2.61831 4.24482,2.8223 10.69589,1.34195 21.43338,2.37341 32.52273,3.54361 l 0.0104,0.0107 c 1.09754,-18.68 3.42788,-16.26535 -14.09145,-19.37869 -1.23214,-0.22007 -2.52156,-0.45593 -3.79384,-0.56194 z m -183.3282,10.72934 c -5.07355,-0.0967 -7.76589,1.62109 -7.75555,8.05172 0.19673,87.15178 0.0938,174.29237 0.0628,261.44414 v 36.12584 h 48.82051 v -7.10607 h 0.0104 c -0.0207,-13.24776 -0.0526,-26.50764 -0.0526,-39.7554 0.0207,-82.73943 0.0523,-165.46782 0.0626,-248.19653 0,-8.52409 -0.0218,-8.93214 -8.14989,-9.47965 -10.97546,-0.74076 -21.99147,-0.86934 -32.99799,-1.08405 z m 110.5211,0.5158 c -13.82285,-0.0967 -27.65693,0.28971 -41.46944,0.90164 l -0.0103,0.0107 c -2.56784,0.10737 -6.55479,1.32108 -4.98095,5.43283 0.50736,1.32049 4.45248,2.06032 6.63722,1.73825 17.9749,-2.67317 35.69203,-2.86675 53.1078,3.68199 1.41852,0.52605 3.85112,-1.81316 5.80807,-2.8223 v -2.30859 c -1.64633,-1.33121 -3.10709,-3.32763 -4.97082,-3.86441 -4.618,-1.32048 -9.40029,-2.73767 -14.12179,-2.76988 z m 72.79902,13.20359 c -13.09471,-0.0967 -26.1992,0.56988 -39.27321,1.40696 -1.53243,0.0967 -2.89863,3.241 -4.33785,4.96941 1.88447,0.82666 3.90322,2.63175 5.622,2.35263 18.25447,-2.95229 36.19891,-2.49025 53.90459,3.65053 1.52207,0.52605 3.89312,-1.52523 5.87077,-2.38407 0.0207,-0.88032 0.0419,-1.74907 0.0627,-2.62939 -1.79128,-1.42783 -3.38681,-3.57664 -5.39553,-4.1349 -5.39453,-1.50298 -10.95541,-3.19896 -16.45346,-3.23117 z m -103.39653,2.0402 c -8.17981,0.0859 -8.86376,1.25658 -8.86376,9.6411 -0.0207,89.56731 -0.0298,179.12338 -0.0505,268.69068 v 11.79872 h 46.25218 c 0.23814,-3.01671 0.64106,-5.75422 0.64106,-8.50254 0.0621,-90.97368 0.0311,-181.93787 0.25886,-272.91157 v -0.0209 c 0.0104,-5.74355 -2.41101,-7.52483 -6.96685,-7.72881 -10.41634,-0.47236 -20.85461,-1.07398 -31.27094,-0.96662 z m 75.93763,13.61245 c -8.42832,0.33279 -8.42695,1.11701 -8.42695,9.90948 -0.0311,78.53109 -0.0521,157.07205 -0.0728,235.60314 v 31.30527 c 13.2016,0 25.5538,0.0324 37.896,-0.0107 8.24194,-0.0322 8.3036,-0.0754 8.3036,-8.57801 0.0518,-43.1894 0.0933,-86.36787 0.0829,-129.55729 -0.0104,-43.38267 -0.16494,-86.77645 -0.0303,-130.1591 0.0104,-4.80953 -1.48138,-7.23522 -5.92333,-7.44993 -10.61306,-0.50458 -21.24711,-1.47103 -31.82909,-1.06307 z m -95.80678,285.18204 c 1.78091,6.10857 5.05212,7.93347 9.60798,7.8798 17.61249,-0.20399 35.23644,-0.49485 52.84893,-0.49485 4.85222,0 6.46547,-2.32621 6.53003,-7.38495 z m -159.43464,0.20339 c 1.65669,6.18372 5.13538,7.97672 9.50486,7.95527 19.32093,-0.0752 38.63229,-0.29976 57.95324,-0.48227 4.46266,-0.043 6.09838,-2.47021 5.44608,-7.473 z m 235.83738,0.044 c 1.491,5.89386 4.53677,7.25595 8.90624,7.213 17.58144,-0.16102 35.17223,-0.2688 52.76402,-0.16144 4.62831,0.0215 6.69885,-2.04875 7.17514,-7.05156 h -0.0104 z m -154.9087,0.042 c 1.17002,7.34318 5.88087,7.67691 10.54026,7.65543 17.96455,-0.0966 35.91984,-0.42019 53.88437,-0.47386 4.63868,-0.0215 6.6982,-2.1036 6.77068,-7.18157 z m -163.34779,0.065 c -0.23815,7.0855 3.84053,8.17961 8.66558,8.17961 19.75581,-0.0322 39.51195,-0.16095 59.26775,-0.18242 4.89753,0 6.71099,-2.72626 7.18728,-7.98671 l 0.0104,-0.0107 z m 384.65893,13.5055 c -16.50458,0.67635 -32.65807,1.24501 -48.80027,2.07164 -5.37384,0.26839 -3.15796,4.97127 -3.54106,7.93429 -0.41418,3.12408 0.92168,4.7762 4.30751,4.70105 8.70787,-0.18251 17.42639,-0.1064 26.13426,-0.12791 h 21.89956 z m -75.67876,0.11742 c -16.62884,0.67634 -32.451,1.28785 -48.28257,1.98568 h -0.0104 c -4.89753,0.22544 -4.44147,4.19898 -4.42076,7.54848 0.0207,2.63023 -0.80706,6.23749 3.42781,6.25897 16.19397,0.0967 32.38669,0.042 48.63243,0.042 0.34169,-2.64095 0.61228,-3.79948 0.63298,-4.95893 0.0621,-3.16701 0.0202,-6.33496 0.0202,-10.87613 z m -129.21124,2.48053 v 15.04037 h 52.82872 v -15.04037 z m -80.79318,0.0651 c 1e-5,6.24812 -0.238,11.2387 0.16582,16.16635 0.10355,1.27754 2.24743,3.41383 3.42781,3.40309 16.76344,-0.22545 33.52705,-0.7503 50.5597,-1.21193 v -18.34709 h -54.14323 z m -26.0918,0.63322 c -18.65828,0 -36.8311,-0.075 -55.00272,0.17195 -1.32534,0.0215 -3.63344,2.37183 -3.74733,3.78891 l -0.0104,-0.0107 c -0.44522,5.35707 -0.17595,10.76727 -0.17595,16.03844 h 58.93611 z m 335.86876,17.71381 c -27.67679,0.96619 -55.36344,1.8232 -83.02986,2.9397 -64.05108,2.5873 -128.09232,5.39048 -192.14342,7.91335 -37.54433,1.48151 -75.09815,2.58712 -112.64249,3.85392 -2.59889,0.0859 -4.88833,0.064 -5.30248,3.86442 -0.82835,7.56861 -2.09171,15.08408 -3.2721,23.32902 4.66975,0 8.62621,0.18326 12.55044,-0.0315 54.90832,-2.99523 109.82676,-6.05539 164.73509,-9.10432 69.41456,-3.85408 138.82845,-7.68679 208.24301,-11.62677 17.1362,-0.9662 17.12666,-1.13859 16.1016,-19.12075 -0.0207,-0.37575 -0.18614,-0.75033 -0.52783,-2.01712 -1.68772,0 -3.20025,-0.0537 -4.71196,0 z m 67.56123,27.46184 c -2.40219,0 -4.50344,-0.0861 -6.58463,0.0107 -28.45335,1.28826 -56.90669,2.43663 -85.33933,3.95036 -52.81678,2.81275 -105.613,5.82939 -158.41943,8.77093 -72.13771,4.01511 -216.42323,12.05663 -216.42323,12.05663 0,0 -11.37195,7.12025 -12.73316,13.08035 -1.36121,5.96009 8.66229,18.01708 8.66229,18.01708 0,0 59.90067,-4.00144 89.84502,-6.10563 48.10562,-3.37099 96.21049,-6.74198 144.30575,-10.19885 64.91047,-4.67 129.82173,-9.39411 194.72186,-14.11778 12.16617,-0.88032 24.343,-1.74857 36.48848,-2.91875 1.89482,-0.18251 5.12412,-1.84846 5.22766,-3.05085 0.52666,-6.3085 0.24875,-12.69206 0.24875,-19.49398 z"
       sodipodi:nodetypes="cccccccccccccccccccccccccccccccccccccccccccccsccccccccccccccccccccccccccccscccccccccsssccccsscccccccccssccccccccccccccccccccccsscccccccccsccccccccsssccsccssscccccccccccsssccscccssscccccccssscccccccccsscccccccccccscccccccssscccccsscssccccccsccccccscccccccccccccccccccccccccccccccccccccccccccccccccccccccccccccccccccccccscccczccccscss" /><g
       id="g14"
       inkscape:label="Ballot"
       transform="matrix(1.1608101,-0.22447193,0,1.2730436,-197.14835,31.321685)"><path
         style="fill:#000000;stroke:#000000;stroke-width:18;stroke-linecap:round;stroke-linejoin:round;stroke-dasharray:none;stroke-opacity:1"
         d="m 351.32911,149.59465 174.75998,-3.5074"
         id="path37" /><path
         style="fill:#ffffff;stroke:#ececec;stroke-width:12;stroke-linecap:round;stroke-linejoin:round;stroke-dasharray:none;stroke-opacity:1"
         d="m 351.32911,149.59465 174.75998,-3.5074"
         id="path19" /><path
         d="m 583.6274,-92.109986 c -40.94412,74.832662 -57.53831,238.197236 -57.53831,238.197236 -123.97476,-2.04537 -176.25037,7.68729 -174.75998,3.5074 0,6.09256 3.65354,-160.602699 65.74673,-245.29853 1.86838,-2.51741 4.78538,-4.3403 8.19606,-4.42821 l 149.64782,-5.35495 c 7.62731,-0.27907 12.146,7.0718 8.70768,13.377054 z"
         fill="#dfecf5"
         id="path7-0"
         style="fill:url(#linearGradient51);fill-opacity:1;stroke-width:6.25"
         sodipodi:nodetypes="ccccccc" /><g
         id="g52"
         inkscape:label="Checks"
         transform="matrix(1.1537122,0,0,1.1537122,-85.360242,14.65411)"><path
           d="m 484.39142,-48.619089 c 0,0 13.97797,15.737349 16.76871,22.165761 h 12.01232 c 5.03547,-15.373342 24.59492,-52.065518 41.36606,-64.927185 3.47023,-4.465189 -5.25387,-6.309504 -12.29746,-3.351317 -10.61695,4.453048 -30.63748,38.487953 -34.37465,46.670888 -5.30241,1.395374 -10.89602,-8.942502 -10.90087,-8.942502 z"
           fill="#118811"
           id="path1-2"
           style="stroke-width:0.121337" /><path
           d="m 459.25835,36.457509 c 0,0 13.97797,15.737349 16.76871,22.165761 h 12.01232 c 5.03547,-15.373343 24.59492,-52.0655178 41.36606,-64.9271848 3.47023,-4.4651892 -5.25387,-6.3095042 -12.29746,-3.3513174 -10.61695,4.4530484 -30.63748,38.4879532 -34.37465,46.6708872 -5.30241,1.395374 -10.89602,-8.942501 -10.90087,-8.942501 z"
           fill="#118811"
           id="path1-2-1"
           style="stroke-width:0.121337" /><path
           style="fill:#000000;stroke:#000000;stroke-width:4.17374;stroke-linecap:round;stroke-linejoin:miter;stroke-dasharray:none;stroke-opacity:1"
           d="m 447.14743,68.042798 70.62389,-1.417409"
           id="path19-2" /><path
           style="fill:#000000;stroke:#000000;stroke-width:4.17374;stroke-linecap:round;stroke-linejoin:miter;stroke-dasharray:none;stroke-opacity:1"
           d="m 471.85434,-21.177342 70.62389,-1.417409"
           id="path19-2-9" /></g></g><path
       class="cls-1"
       d="m 368.60068,476.89891 c 0,-3.23144 -0.0829,-6.43067 -0.21743,-9.61914 l 32.97815,-12.94718 c -0.53842,-6.04416 -1.29427,-12.01318 -2.25722,-17.90703 l -34.8005,-2.24374 c -1.28393,-6.25888 -2.83705,-12.39966 -4.64904,-18.37943 l 28.32911,-22.3301 c -1.99835,-5.50739 -4.18308,-10.88593 -6.54385,-16.13566 l -33.64082,8.45968 c -2.70245,-5.46443 -5.64306,-10.73562 -8.80108,-15.80285 l 21.50569,-29.30829 c -3.1891,-4.48749 -6.53351,-8.81396 -10.01253,-12.95792 l -29.74764,17.89631 c -3.81035,-4.24058 -7.78637,-8.23423 -11.92806,-11.98097 l 13.4812,-33.31268 c -4.01744,-3.14553 -8.12807,-6.10856 -12.33188,-8.86763 l -23.86645,25.18579 c -4.52478,-2.74831 -9.16348,-5.22825 -13.90571,-7.43979 l 5.22889,-34.27886 c -4.43161,-1.6533 -8.92535,-3.11335 -13.46048,-4.35868 l -16.8256,29.888 c -4.82506,-1.15944 -9.71225,-2.02903 -14.66157,-2.6195 l -2.47465,-32.52896 c -4.47303,-0.18251 -8.9771,-0.16104 -13.49153,0.0644 l -9.40163,31.95998 c -2.39181,0.19324 -4.77329,0.44017 -7.17547,0.76224 -2.40217,0.32207 -4.75258,0.71928 -7.09263,1.17018 l -9.07029,-28.70709 c -4.26593,1.15946 -8.46974,2.49067 -12.59072,3.98294 l -2.25721,31.72379 c -4.45232,1.77136 -8.80108,3.7682 -13.03597,5.99048 L 141.5846,288.85352 c -3.74822,2.29743 -7.41361,4.75588 -10.97546,7.34317 l 4.21416,29.5874 c -3.8207,2.94157 -7.51715,6.07637 -11.07899,9.39369 l -18.07847,-17.17703 c -3.0752,3.20996 -6.046851,6.54874 -8.914967,9.98415 l 9.753667,25.95878 c -3.03378,3.85409 -5.9226,7.85847 -8.645767,12.00244 L 77.398852,355.45741 c -2.298635,3.87556 -4.483375,7.84774 -6.554216,11.89508 l 14.268103,21.23508 c -2.143321,4.50898 -4.120976,9.13603 -5.932963,13.87044 L 57.653373,398.8079 c -1.44959,4.31573 -2.774929,8.7066 -3.986373,13.15116 l 17.72641,15.72769 c -1.170026,4.91693 -2.174384,9.90899 -2.992367,14.98695 l -21.371092,3.11334 c -0.569481,4.55191 -1.004358,9.14674 -1.325339,13.78454 l 20.097525,9.61913 c -0.09319,2.54434 -0.14496,5.08869 -0.14496,7.66525 0,2.57655 0.05177,5.12088 0.14496,7.66524 l -20.097525,9.61914 c 0.320981,4.63778 0.755858,9.24337 1.325339,13.78454 l 21.371092,3.11333 c 0.817983,5.06722 1.822341,10.07003 2.992367,14.98694 L 53.667,541.75285 c 1.211444,4.44457 2.536783,8.83544 3.986373,13.15117 l 21.526403,-3.65012 c 1.811987,4.73442 3.789642,9.35074 5.932963,13.87043 l -14.268103,21.23509 c 2.070841,4.04734 4.255581,8.01952 6.554216,11.89509 l 20.459921,-10.48873 c 2.733527,4.14396 5.622337,8.14835 8.645767,12.00245 L 96.750873,625.727 c 2.868116,3.43539 5.839767,6.77418 8.914967,9.98413 l 18.07847,-17.17702 c 3.56184,3.31731 7.24794,6.45212 11.07899,9.39369 l -4.21416,29.5874 c 3.5722,2.58728 7.22724,5.03501 10.97546,7.34318 l 14.29916,-23.40368 c 4.23489,2.22228 8.5733,4.2191 13.03597,5.99048 l 2.25721,31.7238 c 4.12098,1.49225 8.31443,2.82346 12.59072,3.98291 l 9.07029,-28.70708 c 2.34005,0.4509 4.71117,0.84811 7.09263,1.17019 2.38148,0.32207 4.78366,0.57972 7.17547,0.76223 l 9.40163,31.95998 c 4.51443,0.22545 9.0185,0.24692 13.49153,0.0644 l 2.47465,-32.52896 c 4.93897,-0.59046 9.82616,-1.47078 14.66157,-2.6195 l 16.8256,29.88801 c 4.54549,-1.24534 9.02887,-2.69465 13.46048,-4.35866 l -5.22889,-34.2789 c 4.74223,-2.20079 9.38093,-4.68072 13.90571,-7.43978 l 23.86645,25.1858 c 4.21417,-2.75907 8.32479,-5.71137 12.33188,-8.86764 l -13.4812,-33.31267 c 4.14169,-3.74674 8.12807,-7.74038 11.92806,-11.98096 l 29.74764,17.8963 c 3.47902,-4.14396 6.82343,-8.45968 10.01253,-12.95792 L 338.998,583.71844 c 3.15802,-5.06721 6.08827,-10.33842 8.80108,-15.80285 l 33.64082,8.45968 c 2.36077,-5.24972 4.5455,-10.62828 6.54385,-16.13565 l -28.32911,-22.33013 c 1.81199,-5.97974 3.37547,-12.10979 4.64904,-18.37939 l 34.8005,-2.24375 c 0.96295,-5.88314 1.7188,-11.85214 2.25722,-17.90704 l -32.97815,-12.94715 c 0.14495,-3.18849 0.21743,-6.39844 0.21743,-9.61912 z m -34.67625,-17.37027 -69.34216,0.82665 c -1.78092,-9.53324 -5.07356,-18.35794 -9.55693,-26.13053 l 47.63973,-56.14737 c 16.82558,21.98656 28.15309,50.07099 31.25936,81.45125 z m -91.45874,21.21362 c -0.0104,0.21472 -0.0311,0.44015 -0.0414,0.65486 -0.0932,1.27755 -0.22778,2.53362 -0.40381,3.77894 0,0.0752 -0.0207,0.13956 -0.0311,0.20399 -0.39346,2.66243 -0.95259,5.26046 -1.6774,7.76187 -0.64196,2.2008 -1.40817,4.32644 -2.28828,6.37695 -1.05612,2.43699 -2.26757,4.7559 -3.63432,6.93523 -0.0207,0.0322 -0.0414,0.0644 -0.0621,0.0967 -0.67302,1.07356 -1.38746,2.11491 -2.13297,3.11332 -0.0104,0.0215 -0.0311,0.0322 -0.0414,0.0537 -1.50136,2.01832 -3.13732,3.8863 -4.88717,5.58255 -0.0104,0.0107 -0.0311,0.0322 -0.0414,0.043 -0.86975,0.83738 -1.76023,1.63181 -2.68175,2.38332 -0.0311,0.0215 -0.0518,0.043 -0.0828,0.0644 -1.86377,1.51372 -3.83106,2.85567 -5.89155,3.99364 -1.7188,0.95547 -3.49973,1.76065 -5.33242,2.42625 v 0 c -2.07084,0.75149 -4.21417,1.30976 -6.39892,1.67477 -0.0621,0 -0.11389,0.0215 -0.17602,0.0322 -1.0147,0.16104 -2.05012,0.26839 -3.08554,0.34355 -0.17603,0.0107 -0.36241,0.0215 -0.53843,0.0322 -1.03542,0.0537 -2.07084,0.0752 -3.11661,0.0322 -1.04578,-0.043 -2.0812,-0.13956 -3.10626,-0.26839 -0.17603,-0.0215 -0.35205,-0.043 -0.52807,-0.0644 -1.02507,-0.15031 -2.03978,-0.33281 -3.03379,-0.569 -0.0518,-0.0107 -0.11388,-0.0322 -0.16566,-0.043 -2.13296,-0.51531 -4.21416,-1.21312 -6.21253,-2.10418 v 0 c -1.74986,-0.77297 -3.44795,-1.68549 -5.07356,-2.71611 -1.94659,-1.2346 -3.78964,-2.65169 -5.51878,-4.21912 -0.0311,-0.0215 -0.0518,-0.043 -0.0829,-0.0752 -0.8594,-0.77297 -1.68775,-1.59961 -2.48503,-2.44773 -0.0104,-0.0107 -0.0311,-0.0322 -0.0414,-0.043 -1.61525,-1.7177 -3.10626,-3.58569 -4.47301,-5.58253 -0.0104,-0.0215 -0.0207,-0.0322 -0.0311,-0.0537 -0.67302,-0.98768 -1.31499,-2.00756 -1.92589,-3.05965 -0.0207,-0.0322 -0.0311,-0.0644 -0.0518,-0.0859 -1.23215,-2.12564 -2.31934,-4.3694 -3.26158,-6.70977 v 0 c -0.78692,-1.95389 -1.4703,-3.98292 -2.02942,-6.07637 v 0 c -0.64197,-2.37256 -1.14931,-4.8203 -1.491,-7.33244 0,-0.0644 -0.0207,-0.12883 -0.0311,-0.19324 -0.15532,-1.17019 -0.26921,-2.36183 -0.36241,-3.5535 -0.0103,-0.20396 -0.0207,-0.40794 -0.0414,-0.62266 -0.0725,-1.19165 -0.12424,-2.39404 -0.12424,-3.60716 0,-1.21313 0.0518,-2.41553 0.12424,-3.60719 0.0103,-0.20398 0.0207,-0.40796 0.0414,-0.62266 0.0829,-1.19166 0.20709,-2.38332 0.36241,-3.55351 0,-0.0644 0.0207,-0.12882 0.0311,-0.19323 0.34169,-2.51213 0.83869,-4.95985 1.491,-7.33244 v 0 c 0.56949,-2.08272 1.2425,-4.11175 2.02942,-6.07637 0.94224,-2.34035 2.03978,-4.5841 3.26158,-6.69903 0.0207,-0.0322 0.0414,-0.0644 0.0518,-0.0967 0.6109,-1.0521 1.25287,-2.07198 1.92589,-3.05967 0.0104,-0.0215 0.0311,-0.043 0.0414,-0.0537 1.36674,-1.99683 2.85774,-3.8541 4.473,-5.58252 0.0104,-0.0215 0.0311,-0.0322 0.0414,-0.0537 0.79729,-0.84813 1.62562,-1.66404 2.48502,-2.44773 0.0311,-0.0215 0.0518,-0.043 0.0828,-0.0752 1.7395,-1.56741 3.58255,-2.9845 5.5188,-4.2191 1.62561,-1.04137 3.32369,-1.94317 5.07356,-2.71613 v 0 c 1.99837,-0.88032 4.06921,-1.58887 6.21252,-2.10418 0.0518,-0.0107 0.11389,-0.0322 0.16567,-0.043 0.99401,-0.23619 2.00871,-0.41869 3.03379,-0.56899 0.17602,-0.0215 0.35205,-0.043 0.52806,-0.0644 1.02508,-0.12883 2.0605,-0.22545 3.10626,-0.2684 1.04577,-0.043 2.09156,-0.0215 3.11661,0.0322 0.17603,0 0.36239,0.0215 0.53843,0.0322 1.03542,0.0752 2.07085,0.1825 3.08555,0.34354 0.0621,0 0.1139,0.0215 0.17602,0.0322 2.18474,0.35427 4.32806,0.92326 6.39891,1.67475 v 0 c 1.83269,0.66561 3.61362,1.47078 5.33242,2.42626 2.06049,1.13798 4.02779,2.47994 5.89154,3.99367 0.0311,0.0215 0.0518,0.043 0.0829,0.0644 0.92154,0.75149 1.82237,1.54593 2.68177,2.3833 0.0207,0.0107 0.0311,0.0322 0.0518,0.043 1.74986,1.69623 3.38582,3.56422 4.88718,5.58252 0.0104,0.0215 0.0311,0.043 0.0414,0.0537 0.7455,0.99841 1.4496,2.03977 2.12262,3.11334 0.0207,0.0322 0.0414,0.0644 0.0621,0.0966 1.35639,2.17934 2.57819,4.49824 3.63433,6.93522 0.8801,2.0505 1.6463,4.17616 2.28827,6.37697 0.7248,2.5014 1.29428,5.08869 1.67739,7.75112 0,0.0752 0.0207,0.13956 0.0311,0.21472 0.17601,1.24533 0.31062,2.5014 0.4038,3.77894 0.0207,0.21471 0.0311,0.44016 0.0414,0.65487 0.0829,1.26682 0.1346,2.54435 0.1346,3.84337 0,1.299 -0.0518,2.57655 -0.1346,3.84335 z m 38.85935,-124.8447 -46.2419,56.07223 c -6.63706,-4.7022 -14.01961,-7.96584 -21.84739,-9.50105 v -72.44405 c 24.83975,0.40794 48.35415,9.68353 68.08929,25.88361 z m -94.46147,-22.96353 v 71.0055 c -7.43433,2.32964 -14.28881,6.21594 -20.32532,11.32609 l -39.06643,-46.04513 c 16.05938,-17.75674 36.38469,-30.76834 59.39175,-36.28646 z m -75.82389,58.4985 38.02066,46.09881 c -3.78963,7.37536 -6.54386,15.57739 -8.02452,24.30547 l -52.45442,0.6334 c 2.153675,-26.22716 10.147127,-50.58631 22.45828,-71.03768 z m -22.45828,99.89506 52.45442,0.63341 c 1.48066,8.73879 4.23489,16.94082 8.02452,24.30547 l -38.02066,46.09882 C 98.728527,541.9139 90.735075,517.55475 88.5814,491.32759 Z m 38.89042,93.24971 39.06643,-46.04512 c 6.04685,5.09941 12.90135,8.99645 20.32532,11.32608 v 71.00548 c -23.00706,-5.51811 -43.33237,-18.5297 -59.39175,-36.28644 z m 85.76393,39.20655 v -72.44406 c 7.82778,-1.5352 15.21033,-4.80956 21.84739,-9.50105 l 46.2419,56.07222 c -19.74548,16.18933 -43.24954,25.47566 -68.08929,25.88362 z m 89.42932,-48.06344 -47.63973,-56.14736 c 4.47302,-7.77261 7.76567,-16.59729 9.55693,-26.13054 l 69.34216,0.82666 c -3.10627,31.38023 -14.43378,59.45392 -31.25936,81.45124 z"
       id="path2-3"
       inkscape:label="Cog"
       style="fill:url(#linearGradient9);fill-opacity:1;stroke:#a05a2c;stroke-width:8.43456;stroke-linecap:round;stroke-linejoin:round;stroke-dasharray:none;stroke-opacity:1" /><text
       xml:space="preserve"
       style="font-size:16.8691px;line-height:1.25;font-family:sans-serif;stroke-width:1.05432"
       x="734.41321"
       y="86.524925"
       id="text53"
       transform="scale(0.98207498,1.0182522)"><tspan
         sodipodi:role="line"
         id="tspan53"
         x="734.41321"
         y="86.524925"
         style="stroke-width:1.05432" /></text><path
       d="m 704.40557,80.97892 24.96488,0.701257 0.63475,8.211608 -0.89372,-0.01248 c -0.10997,-1.622289 -0.37716,-2.862949 -0.80201,-3.722458 -0.42547,-0.876907 -1.00956,-1.517311 -1.75322,-1.921022 -0.74553,-0.404787 -1.9312,-0.627522 -3.56234,-0.667596 l -11.35275,-0.278915 10.14744,13.164955 -11.57561,13.760419 12.66055,-0.25806 c 2.23747,-0.0456 3.93608,-0.44265 5.10505,-1.18913 1.16428,-0.7435 2.03447,-2.26433 2.61317,-4.56128 l 0.88918,0.20617 -1.35824,9.86489 -25.71575,0.72235 0,-0.90321 13.07583,-15.469681 -13.07583,-16.745535 z"
       id="path1-6"
       style="stroke-width:0.135409"
       inkscape:path-effect="#path-effect59"
       inkscape:original-d="m 704.40557,80.97892 h 25.51658 l 0.67741,8.555446 h -0.95336 q -0.17566,-2.534054 -0.85304,-3.863776 -0.67739,-1.354908 -1.85661,-1.956939 -1.17918,-0.602099 -3.73825,-0.602099 h -11.61638 l 10.36181,13.297354 -11.792,13.924164 h 12.92105 q 3.51252,0 5.36913,-1.12902 1.85659,-1.12902 2.78496,-4.71685 l 0.95337,0.22581 -1.45512,10.28666 h -26.3182 v -0.90321 L 717.5036,98.640808 704.40692,81.881167 Z"
       transform="matrix(0.95694313,0.17495066,0,1.0676253,53.127424,-113.94538)" /></g></svg>
